# xmcd CD database file
#
# Track frame offsets:
#	150
#	17880
#	39250
#	59897
#	77967
#	94232
#	113760
#	139365
#	156795
#	173922
#	195425
#
# Disc length: 2850 seconds
#
# Revision: 2
# Processed by: cddbd v1.4b41PL1 Copyright (c) Steve Scherf et al.
# Submitted via: Feurio! 1.50.2ß - http://www.feurio.com
#
DISCID=950b200b
DTITLE=Various Artist - One Moment In Time
DYEAR=1900
DGENRE=
TTITLE0=John Williams - Olympic Spirit
TTITLE1=Whitney Houston - One Moment In Time
TTITLE2=The Bunburys - Fight (No Matter How Long)
TTITLE3=The Christians - Harvest For The World
TTITLE4=Eric Carmen - Reason To Try
TTITLE5=Bee Gees - Shape Of Things To Come
TTITLE6=Jennifer Holliday - Peace Of Our Time
TTITLE7=Taylor Dayne - Willpower
TTITLE8=Odds and Ends - That´s What Dreams Are Made Of
TTITLE9=Jermaine Jackson and La La - Rise To The Occasion
TTITLE10=Kashif - Olympic Joy
EXTD=00021
EXTT0=
EXTT1=
EXTT2=
EXTT3=
EXTT4=
EXTT5=
EXTT6=
EXTT7=
EXTT8=
EXTT9=
EXTT10=
PLAYORDER=
